<?xml version="1.0" encoding="UTF-8"?> <svg xmlns="http://www.w3.org/2000/svg" width="222" height="36" viewBox="0 0 222 36" fill="none"><g clip-path="url(#clip0_953_1073)"><path d="M135.302 14.0839C135.045 14.0839 134.794 14.1601 134.58 14.303C134.366 14.4458 134.2 14.6488 134.101 14.8864C134.003 15.1239 133.977 15.3853 134.027 15.6375C134.077 15.8897 134.201 16.1213 134.383 16.3031C134.565 16.4849 134.796 16.6087 135.049 16.6589C135.301 16.7091 135.562 16.6833 135.8 16.5849C136.037 16.4865 136.24 16.3199 136.383 16.1061C136.526 15.8923 136.602 15.641 136.602 15.3839C136.597 15.0409 136.458 14.7135 136.215 14.4709C135.973 14.2283 135.645 14.0895 135.302 14.0839Z" fill="#100E0C"></path><path d="M135.302 20.0725C135.045 20.0725 134.794 20.1487 134.58 20.2916C134.366 20.4344 134.2 20.6375 134.101 20.875C134.003 21.1126 133.977 21.374 134.027 21.6261C134.077 21.8783 134.201 22.1099 134.383 22.2917C134.565 22.4736 134.796 22.5974 135.049 22.6475C135.301 22.6977 135.562 22.6719 135.8 22.5735C136.037 22.4752 136.24 22.3085 136.383 22.0948C136.526 21.881 136.602 21.6296 136.602 21.3725C136.597 21.0294 136.458 20.7019 136.215 20.4593C135.973 20.2166 135.645 20.0779 135.302 20.0725Z" fill="#100E0C"></path><path d="M0.5 36H3.39936V8.44412L0.5 6.25159V36Z" fill="#100E0C"></path><path d="M66.5462 0.172974H44.97V3.07033H66.5462V0.172974Z" fill="#100E0C"></path><path d="M65.6554 10.7046H44.97V13.6019H65.6554V10.7046Z" fill="#100E0C"></path><path d="M47.8675 18.183H65.6576V15.3546H44.9722V35.998H67.4372V33.1707H47.8675V18.183Z" fill="#100E0C"></path><path d="M96.3555 0.172974H93.4832V36H96.3555V0.172974Z" fill="#100E0C"></path><path d="M109.348 0.171997H99.302V3.07135L109.355 3.04733H109.502C115.426 3.04733 120.136 4.61999 123.128 7.59833C125.717 10.1768 127.027 13.724 127.027 18.142C127.027 27.7669 121.557 33.0787 111.63 33.1007L102.198 33.0897V11.7504H99.327L99.302 35.999H111.887C123.372 35.999 129.958 29.2175 129.958 17.3942C129.953 6.93148 121.865 0.171997 109.348 0.171997Z" fill="#100E0C"></path><path d="M87.6336 9.64288L79.8084 9.67288C69.1847 9.67288 68.3579 20.1566 68.3579 23.3698C68.3579 30.8052 74.0757 35.999 82.2618 35.999H86.8268L86.7428 33.0857H82.2048C80.6687 33.1477 79.1354 32.9064 77.6925 32.3756C76.2497 31.8449 74.9255 31.035 73.7957 29.9924C72.9596 29.1446 72.3026 28.1371 71.864 27.0301C71.4253 25.9231 71.2139 24.7392 71.2423 23.5488C71.2613 16.1434 74.1556 12.5442 80.0873 12.5442H90.529V0.171997H87.6296L87.6336 9.64288Z" fill="#100E0C"></path><path d="M7.69336 7.15146V11.0896L25.2325 26.8151L42.6286 11.1366V7.13745L25.2325 22.78L7.69336 7.15146Z" fill="#100E0C"></path><path d="M7.69336 0.244902V4.29899L25.2335 19.9005L42.6266 4.264V0.238892L25.2305 15.8664L7.69336 0.244902Z" fill="#100E0C"></path><path d="M7.69336 36H10.5927V15.3906L7.69336 13.0361V36Z" fill="#100E0C"></path><path d="M0 3.92711L4.35603 7.9732V4.00607L0 0.000976562V3.92711Z" fill="#100E0C"></path><g clip-path="url(#clip1_953_1073)"><path d="M150.2 5.75073V23.5204H159.3V27.27H145.756V5.75073H150.2Z" fill="#1A1A1A"></path><path d="M166.567 24.3102C168.417 24.3102 169.401 22.8998 169.401 21.3104V20.7898H167.312C165.491 20.7898 164.478 21.3412 164.478 22.6265C164.478 23.7284 165.373 24.3102 166.566 24.3102M169.668 25.1979C168.683 26.3915 167.012 27.1258 164.986 27.1258C161.913 27.1258 160.6 25.2283 160.6 23.2387C160.6 20.6673 162.449 18.4631 166.805 18.4631H169.401V18.1876C169.401 16.5656 168.476 15.7083 166.358 15.7083C164.917 15.7762 163.509 16.1738 162.24 16.8715V13.7804C163.858 13.1009 165.591 12.7476 167.343 12.7402C171.758 12.7402 173.399 15.097 173.399 18.6173V26.7904H170.058L169.76 25.1988L169.668 25.1979Z" fill="#1A1A1A"></path><path d="M184.435 24.1212C186.553 24.1212 187.925 22.3299 187.925 19.9847C187.925 17.7698 186.581 15.8481 184.464 15.8481C182.287 15.8481 181.064 17.8025 181.064 19.9847C181.064 22.4926 182.376 24.1212 184.435 24.1212ZM180.944 14.1217C182.048 12.7862 183.778 12.3304 185.121 12.3304C189.178 12.3304 191.803 15.4898 191.803 19.952C191.803 24.2838 189.118 27.6063 184.852 27.6063C183.45 27.6063 181.392 27.1175 180.288 25.5215H180.169L179.751 27.2475H176.948V5.7384H180.855V14.123L180.944 14.1217Z" fill="#1A1A1A"></path><path d="M201.473 27.3016C200.274 27.3017 199.102 26.9403 198.105 26.2632C197.109 25.5861 196.332 24.6236 195.873 23.4976C195.414 22.3715 195.294 21.1324 195.528 19.9369C195.762 18.7414 196.339 17.6433 197.186 16.7814C198.034 15.9194 199.114 15.3324 200.29 15.0946C201.466 14.8568 202.684 14.9788 203.792 15.4452C204.899 15.9117 205.846 16.7016 206.512 17.715C207.178 18.7285 207.534 19.92 207.534 21.1389C207.536 21.9489 207.381 22.7514 207.078 23.5003C206.774 24.2491 206.328 24.9295 205.764 25.5023C205.201 26.0751 204.532 26.5289 203.795 26.8377C203.059 27.1465 202.27 27.3042 201.473 27.3016ZM201.473 13.8359C200.052 13.8358 198.664 14.2639 197.482 15.0662C196.301 15.8685 195.38 17.0089 194.837 18.3433C194.293 19.6776 194.151 21.146 194.428 22.5626C194.705 23.9792 195.389 25.2804 196.393 26.3018C197.398 27.3232 198.677 28.0187 200.071 28.3006C201.464 28.5824 202.908 28.4379 204.22 27.8852C205.533 27.3325 206.655 26.3965 207.444 25.1956C208.233 23.9947 208.654 22.5828 208.654 21.1385C208.654 19.2021 207.897 17.3452 206.55 15.9759C205.204 14.6066 203.377 13.8369 201.473 13.8359Z" fill="#1A1A1A"></path><path d="M206.04 26.9522L205.277 27.7283L209.328 31.8473L210.091 31.0713L206.04 26.9522Z" fill="#1A1A1A"></path><path d="M207.582 25.1248L206.818 25.9009L210.867 30.0214L211.631 29.2454L207.582 25.1248Z" fill="#1A1A1A"></path><path d="M197.196 19.765H199.563C199.605 19.3581 199.605 18.9479 199.563 18.541H197.196C197.237 18.9479 197.237 19.3581 197.196 19.765Z" fill="#1A1A1A"></path><path d="M197.196 21.7388H199.563C199.605 21.3318 199.605 20.9217 199.563 20.5148H197.196C197.237 20.9217 197.237 21.3318 197.196 21.7388Z" fill="#1A1A1A"></path><path d="M197.196 23.7129H199.563C199.604 23.306 199.604 22.8958 199.563 22.4889H197.196C197.237 22.8958 197.237 23.306 197.196 23.7129Z" fill="#1A1A1A"></path><path d="M200.435 21.7388H202.802C202.843 21.3318 202.843 20.9217 202.802 20.5148H200.435V21.7388Z" fill="#1A1A1A"></path><path d="M200.435 23.7129H202.802C202.843 23.306 202.843 22.8958 202.802 22.4889H200.435V23.7129Z" fill="#1A1A1A"></path><path d="M203.422 21.7823H205.79C205.83 21.3754 205.83 20.9653 205.79 20.5583H203.422C203.464 20.9653 203.464 21.3754 203.422 21.7823Z" fill="#1A1A1A"></path><path d="M203.422 23.7129H205.79C205.83 23.3059 205.83 22.8958 205.79 22.4889H203.422C203.464 22.8958 203.464 23.306 203.422 23.7129Z" fill="#1A1A1A"></path></g></g><defs><clipPath id="clip0_953_1073"><rect width="221.554" height="36" fill="white"></rect></clipPath><clipPath id="clip1_953_1073"><rect width="204.632" height="36" fill="white" transform="translate(7)"></rect></clipPath></defs></svg> 